<svg width="69" height="67" viewBox="0 0 69 67" fill="none" xmlns="http://www.w3.org/2000/svg">
<rect x="0.249446" y="-0.250614" width="7.02087" height="21.342" rx="1.75" transform="matrix(-0.00221229 -0.999998 0.999997 -0.00245945 5.86698 35.1493)" fill="#FF00FF" stroke="#4B0082" stroke-width="0.5"/>
<rect x="0.25" y="0.876747" width="6.63297" height="65.3076" rx="1.75" fill="#FF00FF" stroke="#4B0082" stroke-width="0.5"/>
<rect x="0.249446" y="-0.250614" width="7.72086" height="19.8645" rx="1.75" transform="matrix(-0.00221229 -0.999998 0.999997 -0.00245945 48.9495 65.7601)" fill="#FF00FF" stroke="#4B0082" stroke-width="0.5"/>
<rect x="47.2087" y="29.7068" width="6.63297" height="35.8509" rx="1.75" fill="#FF00FF" stroke="#4B0082" stroke-width="0.5"/>
<rect x="-0.25" y="-0.25" width="6.39413" height="29.8151" rx="1.75" transform="matrix(0 -1 -1 0 53.5917 6.39414)" fill="white" stroke="#000306" stroke-width="0.5"/>
<rect x="0.25" y="-0.25" width="6.03856" height="28.9568" rx="1.75" transform="matrix(1 0 0 -1 47.5532 28.9568)" fill="white" stroke="#000306" stroke-width="0.5"/>
<path d="M54.9072 31.2172V28.8295C54.9072 27.863 54.1237 27.0795 53.1572 27.0795H31.1914V32.9672H53.1572C54.0634 32.9672 54.8089 32.2785 54.8984 31.3959L54.9072 31.2172Z" fill="white" stroke="#000306" stroke-width="0.5"/>
<rect x="25.8098" y="7.77089" width="6.63297" height="57.7868" rx="1.75" fill="white" stroke="#000306" stroke-width="0.5"/>
</svg>
